# xmcd
#
# Track frame offsets:
#	150
#	24310
#	47510
#	82270
#	101959
#	132494
#	156509
#	187761
#	201702
#	222698
#
# Disc length: 3348 seconds
# Revision: 0
# Processed by: cddbd v1.5.2PL0 Copyright (c) Steve Scherf et al.
# Submitted via: dBpowerAMP V12.0
#
DISCID=9a0d120a
DTITLE=The Clark Sisters - The Definitive Gospel Collection
DYEAR=2008
DGENRE=Gospel
TTITLE0=Wonderful Counselor
TTITLE1=More Than A Conqueror
TTITLE2=I've Got The Victory
TTITLE3=The Darkest Hour
TTITLE4=Jesus Is A Love Song
TTITLE5=I've Got An Angel
TTITLE6=Trust In Him
TTITLE7=I Am Blessed
TTITLE8=There Is A Balm In Gilead
TTITLE9=My Redeemer Liveth
EXTD=
EXTT0=
EXTT1=
EXTT2=
EXTT3=
EXTT4=
EXTT5=
EXTT6=
EXTT7=
EXTT8=
EXTT9=
PLAYORDER=
